<svg width="437" height="83" viewBox="0 0 437 83" xmlns="http://www.w3.org/2000/svg"><title>Combined Shape</title><defs><filter x="-50%" y="-50%" width="200%" height="200%" filterUnits="objectBoundingBox" id="a"><feOffset dy="2" in="SourceAlpha" result="shadowOffsetOuter1"/><feGaussianBlur stdDeviation="2" in="shadowOffsetOuter1" result="shadowBlurOuter1"/><feColorMatrix values="0 0 0 0 0 0 0 0 0 0 0 0 0 0 0 0 0 0 0.35 0" in="shadowBlurOuter1" result="shadowMatrixOuter1"/><feMerge><feMergeNode in="shadowMatrixOuter1"/><feMergeNode in="SourceGraphic"/></feMerge></filter></defs><path d="M422.97 647.82c-.476 1.13-.742 2.494-.742 4.13 0 15.987-17.412 20.342-17.412 20.342s9.11 4.923 22.787.607c11.31-3.57 17.58-19.628 19.41-25.08h359.988a8 8 0 0 0 8-8.004v-31.812c0-4.43-3.58-8.004-8-8.004H394a8 8 0 0 0-8 8.004v31.812c0 4.43 3.58 8.004 8 8.004h28.97z" transform="translate(-382 -598)" stroke="#979797" fill="#FFF" fill-rule="evenodd" filter="url(#a)"/></svg>