<?xml version="1.0" encoding="UTF-8" standalone="no"?>
<svg width="274px" height="75px" viewBox="0 0 274 75" version="1.1" xmlns="http://www.w3.org/2000/svg" xmlns:xlink="http://www.w3.org/1999/xlink">
    <!-- Generator: Sketch 3.6.1 (26313) - http://www.bohemiancoding.com/sketch -->
    <title>Combined Shape Copy</title>
    <desc>Created with Sketch.</desc>
    <defs></defs>
    <g id="Page-1" stroke="none" stroke-width="1" fill="none" fill-rule="evenodd">
        <g id="Artboard-1" transform="translate(-600.000000, -408.000000)" fill="#384F4E">
            <path d="M652.715216,468.550459 L866.003406,468.550459 C870.41015,468.550459 874,464.964536 874,460.541076 L874,416.009383 C874,411.583982 870.419803,408 866.003406,408 L607.996594,408 C603.58985,408 600,411.585923 600,416.009383 L600,460.541076 C600,464.966477 603.580197,468.550459 607.996594,468.550459 L622.892367,468.550459 C617.46285,477.853808 600.009819,480.581709 600.009819,480.581709 C600.009819,480.581709 612.814292,484.905389 632.040639,481.114679 C641.260186,479.296932 648.096492,473.790229 652.715216,468.550459 Z" id="Combined-Shape-Copy" transform="translate(737.000000, 445.335778) scale(-1, 1) translate(-737.000000, -445.335778) "></path>
        </g>
    </g>
</svg>